<?xml version="1.0" encoding="UTF-8" standalone="no"?>
<!DOCTYPE svg PUBLIC "-//W3C//DTD SVG 1.1//EN" "http://www.w3.org/Graphics/SVG/1.1/DTD/svg11.dtd">
<!-- Generated by graphviz version 2.40.1 (20161225.0304)
 -->
<!-- Title: G Pages: 1 -->
<svg width="603pt" height="217pt" viewBox="0.00 0.00 603.16 217.00" xmlns="http://www.w3.org/2000/svg" xmlns:xlink="http://www.w3.org/1999/xlink">
<g id="graph0" class="graph" transform="scale(1 1) rotate(0) translate(4 213)">
<title>G</title>
<polygon fill="#ffffff" stroke="transparent" points="-4,4 -4,-213 599.1594,-213 599.1594,4 -4,4"/>
<g id="clust1" class="cluster">
<title>cluster_header</title>
<polygon fill="none" stroke="#000000" points="368.1362,-64 368.1362,-142 496.1594,-142 496.1594,-64 368.1362,-64"/>
<text text-anchor="middle" x="432.1478" y="-125.4" font-family="Times,serif" font-size="14.00" fill="#000000">Header</text>
</g>
<g id="clust2" class="cluster">
<title>cluster_buffer</title>
<polygon fill="none" stroke="#000000" points="517.1594,-8 517.1594,-149 588.1594,-149 588.1594,-8 517.1594,-8"/>
<text text-anchor="middle" x="552.6594" y="-16.2" font-family="Times,serif" font-size="14.00" fill="#000000">BBBuffer</text>
</g>
<g id="clust3" class="cluster">
<title>cluster_pc</title>
<polygon fill="none" stroke="#000000" points="7,-21 7,-201 96,-201 96,-21 7,-21"/>
</g>
<g id="clust4" class="cluster">
<title>cluster_prod</title>
<polygon fill="none" stroke="#000000" points="16,-115 16,-193 86,-193 86,-115 16,-115"/>
<text text-anchor="middle" x="51" y="-176.4" font-family="Times,serif" font-size="14.00" fill="#000000">Producer</text>
</g>
<g id="clust5" class="cluster">
<title>cluster_cons</title>
<polygon fill="none" stroke="#000000" points="15,-29 15,-107 88,-107 88,-29 15,-29"/>
<text text-anchor="middle" x="51.5" y="-90.4" font-family="Times,serif" font-size="14.00" fill="#000000">Consumer</text>
</g>
<!-- head -->
<g id="node1" class="node">
<title>head</title>
<polygon fill="#b0c92b" fill-opacity="0.250980" stroke="#b0c92b" stroke-opacity="0.250980" points="376.1362,-73 376.1362,-109 488.1594,-109 488.1594,-73 376.1362,-73"/>
<text text-anchor="middle" x="432.1478" y="-86.9" font-family="Times,serif" font-size="14.00" fill="#000000">Atomic variables</text>
</g>
<!-- buf -->
<g id="node2" class="node">
<title>buf</title>
<polygon fill="#b0c92b" fill-opacity="0.250980" stroke="#b0c92b" stroke-opacity="0.250980" points="525.1594,-41.4 525.1594,-140.6 579.1594,-140.6 579.1594,-41.4 525.1594,-41.4"/>
<text text-anchor="middle" x="552.1594" y="-124" font-family="Times,serif" font-size="14.00" fill="#000000">0</text>
<polyline fill="none" stroke="#b0c92b" stroke-opacity="0.250980" points="525.1594,-115.8 579.1594,-115.8 "/>
<text text-anchor="middle" x="552.1594" y="-99.2" font-family="Times,serif" font-size="14.00" fill="#000000">1</text>
<polyline fill="none" stroke="#b0c92b" stroke-opacity="0.250980" points="525.1594,-91 579.1594,-91 "/>
<text text-anchor="middle" x="552.1594" y="-74.4" font-family="Times,serif" font-size="14.00" fill="#000000">2</text>
<polyline fill="none" stroke="#b0c92b" stroke-opacity="0.250980" points="525.1594,-66.2 579.1594,-66.2 "/>
<text text-anchor="middle" x="552.1594" y="-49.6" font-family="Times,serif" font-size="14.00" fill="#000000">...</text>
</g>
<!-- head&#45;&gt;buf -->
<g id="edge7" class="edge">
<title>head-&gt;buf</title>
<path fill="none" stroke="#000000" d="M488.2884,-91C497.2961,-91 506.4204,-91 514.845,-91"/>
<polygon fill="#000000" stroke="#000000" points="515.0804,-94.5001 525.0803,-91 515.0803,-87.5001 515.0804,-94.5001"/>
</g>
<!-- prod -->
<g id="node3" class="node">
<title>prod</title>
<polygon fill="#1954a6" fill-opacity="0.501961" stroke="#1954a6" points="24,-124 24,-160 78,-160 78,-124 24,-124"/>
<text text-anchor="middle" x="51" y="-137.9" font-family="Times,serif" font-size="14.00" fill="#000000">grant</text>
</g>
<!-- wgr -->
<g id="node5" class="node">
<title>wgr</title>
<polygon fill="#1954a6" fill-opacity="0.501961" stroke="#1954a6" points="164.777,-109 164.777,-145 248.0204,-145 248.0204,-109 164.777,-109"/>
<text text-anchor="middle" x="206.3987" y="-122.9" font-family="Times,serif" font-size="14.00" fill="#000000">Write Grant</text>
</g>
<!-- prod&#45;&gt;wgr -->
<g id="edge1" class="edge">
<title>prod-&gt;wgr</title>
<path fill="none" stroke="#1954a6" d="M78.3256,-141.8787C97.5282,-141.5445 123.7892,-140.5876 146.777,-138 149.2938,-137.7167 151.8643,-137.3895 154.4561,-137.0291"/>
<polygon fill="#1954a6" stroke="#1954a6" points="155.1325,-140.4664 164.4898,-135.4974 154.0761,-133.5466 155.1325,-140.4664"/>
</g>
<!-- cons -->
<g id="node4" class="node">
<title>cons</title>
<polygon fill="#d85497" fill-opacity="0.501961" stroke="#d85497" points="24,-38 24,-74 78,-74 78,-38 24,-38"/>
<text text-anchor="middle" x="51" y="-51.9" font-family="Times,serif" font-size="14.00" fill="#000000">read</text>
</g>
<!-- rgr -->
<g id="node6" class="node">
<title>rgr</title>
<polygon fill="#d85497" fill-opacity="0.501961" stroke="#d85497" points="166.3296,-54 166.3296,-90 246.4678,-90 246.4678,-54 166.3296,-54"/>
<text text-anchor="middle" x="206.3987" y="-67.9" font-family="Times,serif" font-size="14.00" fill="#000000">Read Grant</text>
</g>
<!-- cons&#45;&gt;rgr -->
<g id="edge3" class="edge">
<title>cons-&gt;rgr</title>
<path fill="none" stroke="#d85497" d="M78.3272,-56.4812C97.5305,-57.0501 123.7917,-58.2914 146.777,-61 149.815,-61.358 152.9316,-61.7765 156.0699,-62.2371"/>
<polygon fill="#d85497" stroke="#d85497" points="155.6716,-65.7176 166.0968,-63.8293 156.7694,-58.8043 155.6716,-65.7176"/>
</g>
<!-- wgr&#45;&gt;head -->
<g id="edge5" class="edge">
<title>wgr-&gt;head</title>
<path fill="none" stroke="#000000" d="M248.0676,-120.3551C281.0474,-115.0958 327.7347,-107.6507 365.8378,-101.5744"/>
<polygon fill="#000000" stroke="#000000" points="366.5071,-105.012 375.8311,-99.9808 365.4047,-98.0993 366.5071,-105.012"/>
<text text-anchor="middle" x="312.0783" y="-121.2" font-family="Times,serif" font-size="14.00" fill="#000000">Protected access</text>
</g>
<!-- wgr&#45;&gt;cons -->
<g id="edge2" class="edge">
<title>wgr-&gt;cons</title>
<path fill="none" stroke="#1954a6" d="M175.9731,-108.9487C172.0544,-106.1452 168.2149,-103.1327 164.777,-100 155.2341,-91.3042 157.7144,-84.0598 146.777,-77.2 129.2475,-66.2057 106.7832,-60.872 88.0168,-58.3023"/>
<polygon fill="#1954a6" stroke="#1954a6" points="88.3637,-54.8191 78.0264,-57.1406 87.5552,-61.7723 88.3637,-54.8191"/>
<text text-anchor="middle" x="125.3885" y="-82.2" font-family="Times,serif" font-size="14.00" fill="#1954a6">commit</text>
</g>
<!-- rgr&#45;&gt;head -->
<g id="edge6" class="edge">
<title>rgr-&gt;head</title>
<path fill="none" stroke="#000000" d="M246.6631,-75.1118C277.2491,-77.5061 320.3515,-80.9453 358.1362,-84.2 360.6672,-84.418 363.2466,-84.6427 365.852,-84.8718"/>
<polygon fill="#000000" stroke="#000000" points="365.7124,-88.3731 375.9829,-85.772 366.332,-81.4005 365.7124,-88.3731"/>
<text text-anchor="middle" x="312.0783" y="-88.2" font-family="Times,serif" font-size="14.00" fill="#000000">Protected access</text>
</g>
<!-- rgr&#45;&gt;prod -->
<g id="edge4" class="edge">
<title>rgr-&gt;prod</title>
<path fill="none" stroke="#d85497" d="M165.9408,-89.6144C147.0738,-97.8911 124.3438,-107.9517 104,-117.2 98.6086,-119.6509 92.9243,-122.2717 87.36,-124.8578"/>
<polygon fill="#d85497" stroke="#d85497" points="85.7634,-121.7404 78.1819,-129.1412 88.7238,-128.0836 85.7634,-121.7404"/>
<text text-anchor="middle" x="125.3885" y="-121.2" font-family="Times,serif" font-size="14.00" fill="#d85497">release</text>
</g>
</g>
</svg>