<?xml version="1.0" encoding="UTF-8" standalone="no"?>
<!DOCTYPE svg PUBLIC "-//W3C//DTD SVG 1.1//EN" "http://www.w3.org/Graphics/SVG/1.1/DTD/svg11.dtd">
<!-- Generated by graphviz version 2.40.1 (20161225.0304)
 -->
<!-- Title: G Pages: 1 -->
<svg width="643pt" height="242pt" viewBox="0.00 0.00 643.16 242.00" xmlns="http://www.w3.org/2000/svg" xmlns:xlink="http://www.w3.org/1999/xlink">
<g id="graph0" class="graph" transform="scale(1 1) rotate(0) translate(4 238)">
<title>G</title>
<polygon fill="#ffffff" stroke="transparent" points="-4,4 -4,-238 639.1594,-238 639.1594,4 -4,4"/>
<g id="clust1" class="cluster">
<title>cluster_header</title>
<polygon fill="none" stroke="#000000" points="408.1362,-64 408.1362,-142 536.1594,-142 536.1594,-64 408.1362,-64"/>
<text text-anchor="middle" x="472.1478" y="-125.4" font-family="Times,serif" font-size="14.00" fill="#000000">Header</text>
</g>
<g id="clust2" class="cluster">
<title>cluster_buffer</title>
<polygon fill="none" stroke="#000000" points="557.1594,-8 557.1594,-149 628.1594,-149 628.1594,-8 557.1594,-8"/>
<text text-anchor="middle" x="592.6594" y="-16.2" font-family="Times,serif" font-size="14.00" fill="#000000">BBBuffer</text>
</g>
<g id="clust3" class="cluster">
<title>cluster_pc</title>
<polygon fill="none" stroke="#000000" points="0,-21 0,-226 128,-226 128,-21 0,-21"/>
<text text-anchor="middle" x="64" y="-209.4" font-family="Times,serif" font-size="14.00" fill="#000000">BBqueue (SPARK)</text>
</g>
<g id="clust4" class="cluster">
<title>cluster_prod</title>
<polygon fill="#1954a6" fill-opacity="0.250980" stroke="#000000" points="12,-115 12,-193 117,-193 117,-115 12,-115"/>
<text text-anchor="middle" x="64.5" y="-176.4" font-family="Times,serif" font-size="14.00" fill="#000000">Producer (Rust)</text>
</g>
<g id="clust5" class="cluster">
<title>cluster_cons</title>
<polygon fill="#d85497" fill-opacity="0.250980" stroke="#000000" points="8,-29 8,-107 120,-107 120,-29 8,-29"/>
<text text-anchor="middle" x="64" y="-90.4" font-family="Times,serif" font-size="14.00" fill="#000000">Consumer (Rust)</text>
</g>
<!-- head -->
<g id="node1" class="node">
<title>head</title>
<polygon fill="#b0c92b" fill-opacity="0.313725" stroke="#b0c92b" stroke-opacity="0.313725" points="416.1362,-73 416.1362,-109 528.1594,-109 528.1594,-73 416.1362,-73"/>
<text text-anchor="middle" x="472.1478" y="-86.9" font-family="Times,serif" font-size="14.00" fill="#000000">Atomic variables</text>
</g>
<!-- buf -->
<g id="node2" class="node">
<title>buf</title>
<polygon fill="#b0c92b" fill-opacity="0.313725" stroke="#b0c92b" stroke-opacity="0.313725" points="565.1594,-41.4 565.1594,-140.6 619.1594,-140.6 619.1594,-41.4 565.1594,-41.4"/>
<text text-anchor="middle" x="592.1594" y="-124" font-family="Times,serif" font-size="14.00" fill="#000000">0</text>
<polyline fill="none" stroke="#b0c92b" stroke-opacity="0.313725" points="565.1594,-115.8 619.1594,-115.8 "/>
<text text-anchor="middle" x="592.1594" y="-99.2" font-family="Times,serif" font-size="14.00" fill="#000000">1</text>
<polyline fill="none" stroke="#b0c92b" stroke-opacity="0.313725" points="565.1594,-91 619.1594,-91 "/>
<text text-anchor="middle" x="592.1594" y="-74.4" font-family="Times,serif" font-size="14.00" fill="#000000">2</text>
<polyline fill="none" stroke="#b0c92b" stroke-opacity="0.313725" points="565.1594,-66.2 619.1594,-66.2 "/>
<text text-anchor="middle" x="592.1594" y="-49.6" font-family="Times,serif" font-size="14.00" fill="#000000">...</text>
</g>
<!-- head&#45;&gt;buf -->
<g id="edge7" class="edge">
<title>head-&gt;buf</title>
<path fill="none" stroke="#000000" d="M528.2884,-91C537.2961,-91 546.4204,-91 554.845,-91"/>
<polygon fill="#000000" stroke="#000000" points="555.0804,-94.5001 565.0803,-91 555.0803,-87.5001 555.0804,-94.5001"/>
</g>
<!-- prod -->
<g id="node3" class="node">
<title>prod</title>
<polygon fill="#1954a6" fill-opacity="0.501961" stroke="#1954a6" points="37,-124 37,-160 91,-160 91,-124 37,-124"/>
<text text-anchor="middle" x="64" y="-137.9" font-family="Times,serif" font-size="14.00" fill="#000000">grant</text>
</g>
<!-- wgr -->
<g id="node5" class="node">
<title>wgr</title>
<polygon fill="#1954a6" fill-opacity="0.501961" stroke="#1954a6" points="204.777,-109 204.777,-145 288.0204,-145 288.0204,-109 204.777,-109"/>
<text text-anchor="middle" x="246.3987" y="-122.9" font-family="Times,serif" font-size="14.00" fill="#000000">Write Grant</text>
</g>
<!-- prod&#45;&gt;wgr -->
<g id="edge1" class="edge">
<title>prod-&gt;wgr</title>
<path fill="none" stroke="#1954a6" d="M91.3899,-142.2794C116.3259,-142.2557 154.1234,-141.5241 186.777,-138 189.2951,-137.7282 191.8666,-137.4104 194.4592,-137.0575"/>
<polygon fill="#1954a6" stroke="#1954a6" points="195.1279,-140.4963 204.4952,-135.5462 194.0855,-133.5744 195.1279,-140.4963"/>
</g>
<!-- cons -->
<g id="node4" class="node">
<title>cons</title>
<polygon fill="#d85497" fill-opacity="0.501961" stroke="#d85497" points="37,-38 37,-74 91,-74 91,-38 37,-38"/>
<text text-anchor="middle" x="64" y="-51.9" font-family="Times,serif" font-size="14.00" fill="#000000">read</text>
</g>
<!-- rgr -->
<g id="node6" class="node">
<title>rgr</title>
<polygon fill="#d85497" fill-opacity="0.501961" stroke="#d85497" points="206.3296,-54 206.3296,-90 286.4678,-90 286.4678,-54 206.3296,-54"/>
<text text-anchor="middle" x="246.3987" y="-67.9" font-family="Times,serif" font-size="14.00" fill="#000000">Read Grant</text>
</g>
<!-- cons&#45;&gt;rgr -->
<g id="edge3" class="edge">
<title>cons-&gt;rgr</title>
<path fill="none" stroke="#d85497" d="M91.3922,-56.0066C116.3298,-56.2757 154.1283,-57.3421 186.777,-61 189.817,-61.3406 192.9352,-61.7456 196.0746,-62.1961"/>
<polygon fill="#d85497" stroke="#d85497" points="195.683,-65.6773 206.104,-63.7661 196.7657,-58.7615 195.683,-65.6773"/>
</g>
<!-- wgr&#45;&gt;head -->
<g id="edge5" class="edge">
<title>wgr-&gt;head</title>
<path fill="none" stroke="#006400" d="M288.0676,-120.3551C321.0474,-115.0958 367.7347,-107.6507 405.8378,-101.5744"/>
<polygon fill="#006400" stroke="#006400" points="406.5071,-105.012 415.8311,-99.9808 405.4047,-98.0993 406.5071,-105.012"/>
<text text-anchor="middle" x="352.0783" y="-121.2" font-family="Times,serif" font-size="14.00" fill="#006400">Protected access</text>
</g>
<!-- wgr&#45;&gt;cons -->
<g id="edge2" class="edge">
<title>wgr-&gt;cons</title>
<path fill="none" stroke="#1954a6" d="M215.9731,-108.9487C212.0544,-106.1452 208.2149,-103.1327 204.777,-100 195.2341,-91.3042 197.8721,-83.8018 186.777,-77.2 160.9629,-61.8402 127.0271,-56.9061 101.3767,-55.6065"/>
<polygon fill="#1954a6" stroke="#1954a6" points="101.4041,-52.1055 91.2893,-55.2586 101.1627,-59.1013 101.4041,-52.1055"/>
<text text-anchor="middle" x="165.3885" y="-82.2" font-family="Times,serif" font-size="14.00" fill="#1954a6">commit</text>
</g>
<!-- rgr&#45;&gt;head -->
<g id="edge6" class="edge">
<title>rgr-&gt;head</title>
<path fill="none" stroke="#006400" d="M286.6631,-75.1118C317.2491,-77.5061 360.3515,-80.9453 398.1362,-84.2 400.6672,-84.418 403.2466,-84.6427 405.852,-84.8718"/>
<polygon fill="#006400" stroke="#006400" points="405.7124,-88.3731 415.9829,-85.772 406.332,-81.4005 405.7124,-88.3731"/>
<text text-anchor="middle" x="352.0783" y="-88.2" font-family="Times,serif" font-size="14.00" fill="#006400">Protected access</text>
</g>
<!-- rgr&#45;&gt;prod -->
<g id="edge4" class="edge">
<title>rgr-&gt;prod</title>
<path fill="none" stroke="#d85497" d="M206.1424,-89.9911C199.6959,-92.746 193.075,-95.5015 186.777,-98 158.1043,-109.3748 125.1795,-121.1035 100.6478,-129.5882"/>
<polygon fill="#d85497" stroke="#d85497" points="99.3362,-126.338 91.019,-132.9011 101.6137,-132.9572 99.3362,-126.338"/>
<text text-anchor="middle" x="165.3885" y="-117.2" font-family="Times,serif" font-size="14.00" fill="#d85497">release</text>
</g>
</g>
</svg>