<?xml version="1.0" encoding="UTF-8" standalone="no"?>
<!DOCTYPE svg PUBLIC "-//W3C//DTD SVG 1.1//EN" "http://www.w3.org/Graphics/SVG/1.1/DTD/svg11.dtd">
<!-- Generated by graphviz version 2.40.1 (20161225.0304)
 -->
<!-- Title: G Pages: 1 -->
<svg width="488pt" height="197pt" viewBox="0.00 0.00 488.00 197.00" xmlns="http://www.w3.org/2000/svg" xmlns:xlink="http://www.w3.org/1999/xlink">
<g id="graph0" class="graph" transform="scale(1 1) rotate(0) translate(4 193)">
<title>G</title>
<polygon fill="#ffffff" stroke="transparent" points="-4,4 -4,-193 484,-193 484,4 -4,4"/>
<!-- table_nodes -->
<g id="node1" class="node">
<title>table_nodes</title>
<polygon fill="#d3d3d3" stroke="transparent" points="8,-159.5 8,-184.5 472,-184.5 472,-159.5 8,-159.5"/>
<polygon fill="none" stroke="#000000" points="8,-159.5 8,-184.5 472,-184.5 472,-159.5 8,-159.5"/>
<text text-anchor="start" x="132.8664" y="-167.1" font-family="Arial" font-size="16.00" fill="#000000">BBqueue Producer-Consumer</text>
<polygon fill="#ffffff" stroke="transparent" points="8,-134.5 8,-159.5 240,-159.5 240,-134.5 8,-134.5"/>
<polygon fill="none" stroke="#000000" points="8,-134.5 8,-159.5 240,-159.5 240,-134.5 8,-134.5"/>
<text text-anchor="start" x="43.1128" y="-142.1" font-family="Arial" font-size="16.00" fill="#000000">Producer (Write Grant)</text>
<polygon fill="#ffffff" stroke="transparent" points="240,-134.5 240,-159.5 472,-159.5 472,-134.5 240,-134.5"/>
<polygon fill="none" stroke="#000000" points="240,-134.5 240,-159.5 472,-159.5 472,-134.5 240,-134.5"/>
<text text-anchor="start" x="270.216" y="-142.1" font-family="Arial" font-size="16.00" fill="#000000">Consumer (Read Grant)</text>
<polygon fill="none" stroke="#000000" points="8,-61.5 8,-134.5 240,-134.5 240,-61.5 8,-61.5"/>
<text text-anchor="start" x="98.7146" y="-116.9" font-family="Arial" font-size="14.00" fill="#000000">1. Grant</text>
<text text-anchor="start" x="52.3186" y="-98.7" font-family="Arial" font-size="12.00" fill="#000000">Gives space to write bytes.</text>
<text text-anchor="start" x="28.6306" y="-84.3" font-family="Arial" font-size="12.00" fill="#000000">Space is guaranteed to have single </text>
<text text-anchor="start" x="12.973" y="-69.9" font-family="Arial" font-size="12.00" fill="#000000"> ownership and be continuous in memory.</text>
<polygon fill="none" stroke="#000000" points="240,-61.5 240,-134.5 472,-134.5 472,-61.5 240,-61.5"/>
<text text-anchor="start" x="331.4909" y="-113.3" font-family="Arial" font-size="14.00" fill="#000000">3. Read</text>
<text text-anchor="start" x="244.6376" y="-87.6" font-family="Arial" font-size="12.00" fill="#000000">Gives a mutable slice to read, continuous </text>
<text text-anchor="start" x="326.3354" y="-73.2" font-family="Arial" font-size="12.00" fill="#000000">in memory.</text>
<polygon fill="none" stroke="#000000" points="8,-3.5 8,-61.5 240,-61.5 240,-3.5 8,-3.5"/>
<text text-anchor="start" x="92.1143" y="-40.8" font-family="Arial" font-size="14.00" fill="#000000">2. Commit</text>
<text text-anchor="start" x="13" y="-15.4" font-family="Arial" font-size="12.00" fill="#000000">Makes memory available to read.</text>
<polygon fill="none" stroke="#000000" points="240,-3.5 240,-61.5 472,-61.5 472,-3.5 240,-3.5"/>
<text text-anchor="start" x="322.5463" y="-43.9" font-family="Arial" font-size="14.00" fill="#000000">4. Release</text>
<text text-anchor="start" x="245" y="-25.7" font-family="Arial" font-size="12.00" fill="#000000">Frees the memory and gives the space </text>
<text text-anchor="start" x="334.3538" y="-11.3" font-family="Arial" font-size="12.00" fill="#000000"> back.</text>
</g>
</g>
</svg>