<?xml version="1.0" encoding="UTF-8" standalone="no"?>
<!DOCTYPE svg PUBLIC "-//W3C//DTD SVG 1.1//EN" "http://www.w3.org/Graphics/SVG/1.1/DTD/svg11.dtd">
<!-- Generated by graphviz version 2.40.1 (20161225.0304)
 -->
<!-- Title: G Pages: 1 -->
<svg width="461pt" height="201pt" viewBox="0.00 0.00 461.50 201.00" xmlns="http://www.w3.org/2000/svg" xmlns:xlink="http://www.w3.org/1999/xlink">
<g id="graph0" class="graph" transform="scale(1 1) rotate(0) translate(4 197)">
<title>G</title>
<polygon fill="#ffffff" stroke="transparent" points="-4,4 -4,-197 457.4974,-197 457.4974,4 -4,4"/>
<g id="clust1" class="cluster">
<title>cluster_buffer</title>
<polygon fill="none" stroke="#000000" points="375.4974,-14 375.4974,-131 446.4974,-131 446.4974,-14 375.4974,-14"/>
<text text-anchor="middle" x="410.9974" y="-114.4" font-family="Times,serif" font-size="14.00" fill="#000000">BBBuffer</text>
</g>
<g id="clust2" class="cluster">
<title>cluster_prod</title>
<polygon fill="none" stroke="#000000" points="8,-107 8,-185 78,-185 78,-107 8,-107"/>
<text text-anchor="middle" x="43" y="-168.4" font-family="Times,serif" font-size="14.00" fill="#000000">Producer</text>
</g>
<g id="clust3" class="cluster">
<title>cluster_cons</title>
<polygon fill="none" stroke="#000000" points="7,-8 7,-86 80,-86 80,-8 7,-8"/>
<text text-anchor="middle" x="43.5" y="-69.4" font-family="Times,serif" font-size="14.00" fill="#000000">Consumer</text>
</g>
<!-- buf -->
<g id="node1" class="node">
<title>buf</title>
<polygon fill="none" stroke="#000000" points="383.4974,-22.8 383.4974,-97.2 437.4974,-97.2 437.4974,-22.8 383.4974,-22.8"/>
<text text-anchor="middle" x="410.4974" y="-80.6" font-family="Times,serif" font-size="14.00" fill="#000000">0</text>
<polyline fill="none" stroke="#000000" points="383.4974,-72.4 437.4974,-72.4 "/>
<text text-anchor="middle" x="410.4974" y="-55.8" font-family="Times,serif" font-size="14.00" fill="#000000">1</text>
<polyline fill="none" stroke="#000000" points="383.4974,-47.6 437.4974,-47.6 "/>
<text text-anchor="middle" x="410.4974" y="-31" font-family="Times,serif" font-size="14.00" fill="#000000">2</text>
</g>
<!-- prod -->
<g id="node2" class="node">
<title>prod</title>
<polygon fill="none" stroke="#000000" points="16,-116 16,-152 70,-152 70,-116 16,-116"/>
<text text-anchor="middle" x="42.75" y="-129.9" font-family="Times,serif" font-size="14.00" fill="#000000"> </text>
</g>
<!-- wgr -->
<g id="node4" class="node">
<title>wgr</title>
<polygon fill="none" stroke="#000000" points="172.1382,-111 172.1382,-147 255.3816,-147 255.3816,-111 172.1382,-111"/>
<text text-anchor="middle" x="213.7599" y="-124.9" font-family="Times,serif" font-size="14.00" fill="#000000">Write Grant</text>
</g>
<!-- prod&#45;&gt;wgr -->
<g id="edge1" class="edge">
<title>prod-&gt;wgr</title>
<path fill="none" stroke="#000000" d="M70.0574,-133.2077C94.5374,-132.4909 131.2705,-131.4154 161.4696,-130.5311"/>
<polygon fill="#000000" stroke="#000000" points="161.9549,-134.0185 171.8481,-130.2272 161.7499,-127.0215 161.9549,-134.0185"/>
</g>
<!-- cons -->
<g id="node3" class="node">
<title>cons</title>
<polygon fill="none" stroke="#000000" points="16,-17 16,-53 70,-53 70,-17 16,-17"/>
<text text-anchor="middle" x="42.75" y="-30.9" font-family="Times,serif" font-size="14.00" fill="#000000"> </text>
</g>
<!-- rgr -->
<g id="node5" class="node">
<title>rgr</title>
<polygon fill="none" stroke="#000000" points="173.6908,-22 173.6908,-58 253.829,-58 253.829,-22 173.6908,-22"/>
<text text-anchor="middle" x="213.7599" y="-35.9" font-family="Times,serif" font-size="14.00" fill="#000000">Read Grant</text>
</g>
<!-- cons&#45;&gt;rgr -->
<g id="edge4" class="edge">
<title>cons-&gt;rgr</title>
<path fill="none" stroke="#000000" d="M70.3021,-31.7373C76.7515,-31.0981 83.6106,-30.5254 90,-30.2 118.469,-28.75 125.7269,-27.8806 154.1382,-30.2 157.1767,-30.4481 160.2937,-30.7661 163.4323,-31.135"/>
<polygon fill="#000000" stroke="#000000" points="163.0868,-34.6197 173.4598,-32.4632 164.006,-27.6804 163.0868,-34.6197"/>
<text text-anchor="middle" x="122.0691" y="-35.2" font-family="Times,serif" font-size="14.00" fill="#000000">Read Grant</text>
</g>
<!-- wgr&#45;&gt;buf -->
<g id="edge7" class="edge">
<title>wgr-&gt;buf</title>
<path fill="none" stroke="#000000" d="M255.4215,-115.1108C285.9763,-104.8301 328.4244,-90.3514 365.4974,-77 368.2229,-76.0184 371.036,-74.9907 373.8629,-73.9475"/>
<polygon fill="#000000" stroke="#000000" points="375.2727,-77.1573 383.4203,-70.3846 372.8276,-70.5982 375.2727,-77.1573"/>
<text text-anchor="middle" x="319.4395" y="-112.2" font-family="Times,serif" font-size="14.00" fill="#000000">Protected access</text>
</g>
<!-- wgr&#45;&gt;cons -->
<g id="edge3" class="edge">
<title>wgr-&gt;cons</title>
<path fill="none" stroke="#000000" d="M182.0155,-110.779C178.4767,-108.0766 175.0901,-105.1358 172.1382,-102 161.0064,-90.1748 166.7538,-80.4273 154.1382,-70.2 148.1526,-65.3475 109.9605,-53.8122 79.997,-45.2619"/>
<polygon fill="#000000" stroke="#000000" points="80.7846,-41.8474 70.2093,-42.4906 78.8776,-48.5826 80.7846,-41.8474"/>
<text text-anchor="middle" x="122.0691" y="-75.2" font-family="Times,serif" font-size="14.00" fill="#000000">commit(1)</text>
</g>
<!-- wgr&#45;&gt;wgr -->
<g id="edge2" class="edge">
<title>wgr-&gt;wgr</title>
<path fill="none" stroke="#000000" d="M197.5812,-147.0287C194.8318,-156.6943 200.2247,-165.5 213.7599,-165.5 222.2194,-165.5 227.4983,-162.0603 229.5966,-157.1207"/>
<polygon fill="#000000" stroke="#000000" points="233.0978,-157.1415 229.9386,-147.0287 226.1019,-156.9044 233.0978,-157.1415"/>
<text text-anchor="middle" x="213.7599" y="-169.7" font-family="Times,serif" font-size="14.00" fill="#000000">wgr[0] = 123</text>
</g>
<!-- rgr&#45;&gt;buf -->
<g id="edge8" class="edge">
<title>rgr-&gt;buf</title>
<path fill="none" stroke="#000000" d="M254.0474,-44.0956C288.9919,-47.648 339.1716,-52.7491 373.2073,-56.2091"/>
<polygon fill="#000000" stroke="#000000" points="372.9143,-59.6973 383.217,-57.2267 373.6223,-52.7332 372.9143,-59.6973"/>
<text text-anchor="middle" x="319.4395" y="-60.2" font-family="Times,serif" font-size="14.00" fill="#000000">Protected access</text>
</g>
<!-- rgr&#45;&gt;prod -->
<g id="edge6" class="edge">
<title>rgr-&gt;prod</title>
<path fill="none" stroke="#000000" d="M194.257,-58.1165C183.1475,-67.7046 168.5937,-79.0955 154.1382,-87 127.6715,-101.4724 117.6726,-97.1932 90,-109.2 86.5828,-110.6827 83.0744,-112.3146 79.5886,-114.0117"/>
<polygon fill="#000000" stroke="#000000" points="77.8453,-110.9709 70.4923,-118.5988 80.9972,-117.2212 77.8453,-110.9709"/>
<text text-anchor="middle" x="122.0691" y="-113.2" font-family="Times,serif" font-size="14.00" fill="#000000">release(1)</text>
</g>
<!-- rgr&#45;&gt;rgr -->
<g id="edge5" class="edge">
<title>rgr-&gt;rgr</title>
<path fill="none" stroke="#000000" d="M197.5812,-58.0287C194.8318,-67.6943 200.2247,-76.5 213.7599,-76.5 222.2194,-76.5 227.4983,-73.0603 229.5966,-68.1207"/>
<polygon fill="#000000" stroke="#000000" points="233.0978,-68.1415 229.9386,-58.0287 226.1019,-67.9044 233.0978,-68.1415"/>
<text text-anchor="middle" x="213.7599" y="-80.7" font-family="Times,serif" font-size="14.00" fill="#000000">read() -&gt; wgr[0]</text>
</g>
</g>
</svg>