<?xml version="1.0" encoding="UTF-8" standalone="no"?>
<!DOCTYPE svg PUBLIC "-//W3C//DTD SVG 1.1//EN" "http://www.w3.org/Graphics/SVG/1.1/DTD/svg11.dtd">
<!-- Generated by graphviz version 2.40.1 (20161225.0304)
 -->
<!-- Title: G Pages: 1 -->
<svg width="978pt" height="447pt" viewBox="0.00 0.00 978.00 447.20" xmlns="http://www.w3.org/2000/svg" xmlns:xlink="http://www.w3.org/1999/xlink">
<g id="graph0" class="graph" transform="scale(1 1) rotate(0) translate(4 443.2)">
<title>G</title>
<polygon fill="#ffffff" stroke="transparent" points="-4,4 -4,-443.2 974,-443.2 974,4 -4,4"/>
<g id="clust1" class="cluster">
<title>cluster_memory_safety</title>
<polygon fill="#b0c92b" fill-opacity="0.188235" stroke="#b0c92b" stroke-opacity="0.188235" points="8,-152 8,-431.2 386,-431.2 386,-152 8,-152"/>
<text text-anchor="middle" x="197" y="-414.6" font-family="Times,serif" font-size="14.00" fill="#000000">Memory Safety</text>
</g>
<g id="clust2" class="cluster">
<title>cluster_step_1</title>
<polygon fill="#b0c92b" fill-opacity="0.188235" stroke="#b0c92b" stroke-opacity="0.188235" points="16,-321.6 16,-398.4 378,-398.4 378,-321.6 16,-321.6"/>
<text text-anchor="middle" x="197" y="-381.8" font-family="Times,serif" font-size="14.00" fill="#000000">Step 1</text>
</g>
<g id="clust3" class="cluster">
<title>cluster_step_2</title>
<polygon fill="#b0c92b" fill-opacity="0.188235" stroke="#b0c92b" stroke-opacity="0.188235" points="51,-160 51,-236.8 361,-236.8 361,-160 51,-160"/>
<text text-anchor="middle" x="206" y="-220.2" font-family="Times,serif" font-size="14.00" fill="#000000">Step 2</text>
</g>
<g id="clust4" class="cluster">
<title>cluster_intermediary_step</title>
<polygon fill="#1954a6" fill-opacity="0.188235" stroke="#1954a6" stroke-opacity="0.188235" points="394,-88 394,-313.6 770,-313.6 770,-88 394,-88"/>
<text text-anchor="middle" x="582" y="-297" font-family="Times,serif" font-size="14.00" fill="#000000">Memory attack intermediary steps</text>
</g>
<g id="clust5" class="cluster">
<title>cluster_final</title>
<polygon fill="#d3d3d3" stroke="#000000" points="77,-8 77,-68 962,-68 962,-8 77,-8"/>
</g>
<!-- OOB -->
<g id="node1" class="node">
<title>OOB</title>
<polygon fill="none" stroke="#000000" points="369.526,-365.6 180.474,-365.6 180.474,-329.6 369.526,-329.6 369.526,-365.6"/>
<text text-anchor="middle" x="275" y="-343.4" font-family="Times,serif" font-size="14.00" fill="#000000">Make pointer go out of bounds</text>
</g>
<!-- diamond -->
<g id="node3" class="node">
<title>diamond</title>
<polygon fill="#ffffff" stroke="#ffffff" points="193,-280.8 157,-262.8 193,-244.8 229,-262.8 193,-280.8"/>
</g>
<!-- OOB&#45;&gt;diamond -->
<g id="edge1" class="edge">
<title>OOB-&gt;diamond</title>
<path fill="none" stroke="#000000" d="M257.2072,-329.1997C243.8535,-315.3899 225.6023,-296.5155 211.9714,-282.4192"/>
<polygon fill="#000000" stroke="#000000" points="214.402,-279.8978 204.9345,-275.142 209.3698,-284.7638 214.402,-279.8978"/>
</g>
<!-- read -->
<g id="node5" class="node">
<title>read</title>
<polygon fill="none" stroke="#000000" points="181.4026,-204 58.5974,-204 58.5974,-168 181.4026,-168 181.4026,-204"/>
<text text-anchor="middle" x="120" y="-181.8" font-family="Times,serif" font-size="14.00" fill="#000000">Use pointer to read</text>
</g>
<!-- OOB&#45;&gt;read -->
<!-- data_integrity_node -->
<g id="node6" class="node">
<title>data_integrity_node</title>
<polygon fill="none" stroke="#000000" points="643.8647,-280.8 550.1353,-280.8 550.1353,-244.8 643.8647,-244.8 643.8647,-280.8"/>
<text text-anchor="middle" x="597" y="-258.6" font-family="Times,serif" font-size="14.00" fill="#000000">Data integrity</text>
</g>
<!-- OOB&#45;&gt;data_integrity_node -->
<g id="edge9" class="edge">
<title>OOB-&gt;data_integrity_node</title>
<path fill="none" stroke="#000000" d="M385.9954,-340.1086C446.1665,-334.7356 513.6821,-326.1927 541,-313.6 553.7926,-307.703 565.7005,-297.8234 575.2174,-288.3363"/>
<polygon fill="#000000" stroke="#000000" points="577.9432,-290.5493 582.3085,-280.8955 572.8758,-285.72 577.9432,-290.5493"/>
</g>
<!-- output_data_var -->
<g id="node10" class="node">
<title>output_data_var</title>
<polygon fill="none" stroke="#000000" points="532.2935,-280.8 401.7065,-280.8 401.7065,-244.8 532.2935,-244.8 532.2935,-280.8"/>
<text text-anchor="middle" x="467" y="-258.6" font-family="Times,serif" font-size="14.00" fill="#000000">Output data variable</text>
</g>
<!-- OOB&#45;&gt;output_data_var -->
<g id="edge13" class="edge">
<title>OOB-&gt;output_data_var</title>
<path fill="none" stroke="#000000" d="M385.9952,-298.5771C396.6955,-293.8512 407.1409,-289.2378 416.782,-284.9796"/>
<polygon fill="#000000" stroke="#000000" points="418.4758,-288.0578 426.2092,-280.8159 415.6476,-281.6545 418.4758,-288.0578"/>
</g>
<!-- dangling -->
<g id="node2" class="node">
<title>dangling</title>
<polygon fill="none" stroke="#000000" points="162.0646,-365.6 23.9354,-365.6 23.9354,-329.6 162.0646,-329.6 162.0646,-365.6"/>
<text text-anchor="middle" x="93" y="-343.4" font-family="Times,serif" font-size="14.00" fill="#000000">Make pointer become</text>
</g>
<!-- dangling&#45;&gt;diamond -->
<g id="edge2" class="edge">
<title>dangling-&gt;diamond</title>
<path fill="none" stroke="#000000" d="M114.6985,-329.1997C131.6801,-314.7993 155.1559,-294.8918 171.9652,-280.6375"/>
<polygon fill="#000000" stroke="#000000" points="174.2605,-283.2801 179.6238,-274.143 169.7332,-277.9413 174.2605,-283.2801"/>
</g>
<!-- dangling&#45;&gt;read -->
<!-- writefr -->
<g id="node4" class="node">
<title>writefr</title>
<polygon fill="none" stroke="#000000" points="352.717,-204 199.283,-204 199.283,-168 352.717,-168 352.717,-204"/>
<text text-anchor="middle" x="276" y="-181.8" font-family="Times,serif" font-size="14.00" fill="#000000">Use pointer to write/free</text>
</g>
<!-- diamond&#45;&gt;writefr -->
<g id="edge3" class="edge">
<title>diamond-&gt;writefr</title>
<path fill="none" stroke="#000000" d="M205.9688,-250.8C217.3557,-240.2637 234.297,-224.5878 248.6646,-211.2935"/>
<polygon fill="#000000" stroke="#000000" points="251.3673,-213.5611 256.3302,-204.2005 246.6132,-208.4232 251.3673,-213.5611"/>
</g>
<!-- diamond&#45;&gt;read -->
<g id="edge4" class="edge">
<title>diamond-&gt;read</title>
<path fill="none" stroke="#000000" d="M181.2713,-250.4608C171.2987,-239.969 156.6548,-224.5629 144.1839,-211.4428"/>
<polygon fill="#000000" stroke="#000000" points="146.5704,-208.8733 137.1441,-204.0365 141.4967,-213.696 146.5704,-208.8733"/>
</g>
<!-- read&#45;&gt;data_integrity_node -->
<!-- read&#45;&gt;output_data_var -->
<!-- instruction_rand_node -->
<g id="node7" class="node">
<title>instruction_rand_node</title>
<polygon fill="none" stroke="#000000" points="762.0688,-204 581.9312,-204 581.9312,-168 762.0688,-168 762.0688,-204"/>
<text text-anchor="middle" x="672" y="-181.8" font-family="Times,serif" font-size="14.00" fill="#000000">Instruction set randomization</text>
</g>
<!-- data_integrity_node&#45;&gt;instruction_rand_node -->
<g id="edge10" class="edge">
<title>data_integrity_node-&gt;instruction_rand_node</title>
<path fill="none" stroke="#000000" d="M614.774,-244.5995C624.4879,-234.6524 636.6705,-222.1774 647.2959,-211.297"/>
<polygon fill="#000000" stroke="#000000" points="649.8709,-213.6697 654.3536,-204.0699 644.8628,-208.779 649.8709,-213.6697"/>
</g>
<!-- data_rand_node -->
<g id="node8" class="node">
<title>data_rand_node</title>
<polygon fill="none" stroke="#000000" points="563.8821,-204 402.1179,-204 402.1179,-168 563.8821,-168 563.8821,-204"/>
<text text-anchor="middle" x="483" y="-181.8" font-family="Times,serif" font-size="14.00" fill="#000000">Data space randomization</text>
</g>
<!-- data_integrity_node&#45;&gt;data_rand_node -->
<g id="edge11" class="edge">
<title>data_integrity_node-&gt;data_rand_node</title>
<path fill="none" stroke="#000000" d="M570.2721,-244.7938C554.8045,-234.3736 535.1474,-221.1309 518.4065,-209.8528"/>
<polygon fill="#000000" stroke="#000000" points="520.2046,-206.844 509.9555,-204.1595 516.2935,-212.6495 520.2046,-206.844"/>
</g>
<!-- code_corruption_attack -->
<g id="node11" class="node">
<title>code_corruption_attack</title>
<polygon fill="none" stroke="#000000" points="949.9549,-30.5442 949.9549,-45.4558 886.7164,-56 797.2836,-56 734.0451,-45.4558 734.0451,-30.5442 797.2836,-20 886.7164,-20 949.9549,-30.5442"/>
<polygon fill="none" stroke="#000000" points="953.9632,-27.157 953.9632,-48.843 887.049,-60 796.951,-60 730.0368,-48.843 730.0368,-27.157 796.951,-16 887.049,-16 953.9632,-27.157"/>
<text text-anchor="middle" x="842" y="-33.8" font-family="Times,serif" font-size="14.00" fill="#000000">Code corruption attack</text>
</g>
<!-- instruction_rand_node&#45;&gt;code_corruption_attack -->
<g id="edge18" class="edge">
<title>instruction_rand_node-&gt;code_corruption_attack</title>
<path fill="none" stroke="#000000" d="M692.8453,-167.8523C721.738,-142.6987 774.2743,-96.9612 808.6527,-67.0318"/>
<polygon fill="#000000" stroke="#000000" points="811.3052,-69.3631 816.5493,-60.1571 806.7089,-64.0835 811.3052,-69.3631"/>
</g>
<!-- data_flow_int -->
<g id="node9" class="node">
<title>data_flow_int</title>
<polygon fill="none" stroke="#000000" points="524.0227,-132 401.9773,-132 401.9773,-96 524.0227,-96 524.0227,-132"/>
<text text-anchor="middle" x="463" y="-109.8" font-family="Times,serif" font-size="14.00" fill="#000000">Data flow integrity</text>
</g>
<!-- data_rand_node&#45;&gt;data_flow_int -->
<g id="edge12" class="edge">
<title>data_rand_node-&gt;data_flow_int</title>
<path fill="none" stroke="#000000" d="M477.9532,-167.8314C475.7906,-160.0463 473.2147,-150.7729 470.8152,-142.1347"/>
<polygon fill="#000000" stroke="#000000" points="474.1636,-141.1117 468.1148,-132.4133 467.419,-142.9852 474.1636,-141.1117"/>
</g>
<!-- information_leak -->
<g id="node14" class="node">
<title>information_leak</title>
<polygon fill="none" stroke="#000000" points="707.7943,-30.5442 707.7943,-45.4558 659.8803,-56 592.1197,-56 544.2057,-45.4558 544.2057,-30.5442 592.1197,-20 659.8803,-20 707.7943,-30.5442"/>
<polygon fill="none" stroke="#000000" points="711.7894,-27.3279 711.7894,-48.6721 660.3142,-60 591.6858,-60 540.2106,-48.6721 540.2106,-27.3279 591.6858,-16 660.3142,-16 711.7894,-27.3279"/>
<text text-anchor="middle" x="626" y="-33.8" font-family="Times,serif" font-size="14.00" fill="#000000">Information leak</text>
</g>
<!-- data_rand_node&#45;&gt;information_leak -->
<g id="edge17" class="edge">
<title>data_rand_node-&gt;information_leak</title>
<path fill="none" stroke="#000000" d="M500.5346,-167.8523C524.7359,-142.8048 568.6582,-97.3468 597.5822,-67.4115"/>
<polygon fill="#000000" stroke="#000000" points="600.1599,-69.7806 604.5915,-60.1571 595.1258,-64.9166 600.1599,-69.7806"/>
</g>
<!-- control_flow_hijack_attack -->
<g id="node12" class="node">
<title>control_flow_hijack_attack</title>
<polygon fill="none" stroke="#000000" points="331.2606,-30.5442 331.2606,-45.4558 260.2278,-56 159.7722,-56 88.7394,-45.4558 88.7394,-30.5442 159.7722,-20 260.2278,-20 331.2606,-30.5442"/>
<polygon fill="none" stroke="#000000" points="335.2567,-27.0936 335.2567,-48.9064 260.5225,-60 159.4775,-60 84.7433,-48.9064 84.7433,-27.0936 159.4775,-16 260.5225,-16 335.2567,-27.0936"/>
<text text-anchor="middle" x="210" y="-33.8" font-family="Times,serif" font-size="14.00" fill="#000000">Control flow hijack attack</text>
</g>
<!-- data_flow_int&#45;&gt;control_flow_hijack_attack -->
<g id="edge16" class="edge">
<title>data_flow_int-&gt;control_flow_hijack_attack</title>
<path fill="none" stroke="#000000" d="M403.0425,-95.9891C367.8985,-85.432 323.1755,-71.9974 285.6275,-60.7182"/>
<polygon fill="#000000" stroke="#000000" points="286.3295,-57.2746 275.7453,-57.7496 284.3156,-63.9786 286.3295,-57.2746"/>
</g>
<!-- data_only_attack -->
<g id="node13" class="node">
<title>data_only_attack</title>
<polygon fill="none" stroke="#000000" points="518.3863,-30.5442 518.3863,-45.4558 471.2971,-56 404.7029,-56 357.6137,-45.4558 357.6137,-30.5442 404.7029,-20 471.2971,-20 518.3863,-30.5442"/>
<polygon fill="none" stroke="#000000" points="522.3835,-27.3403 522.3835,-48.6597 471.7388,-60 404.2612,-60 353.6165,-48.6597 353.6165,-27.3403 404.2612,-16 471.7388,-16 522.3835,-27.3403"/>
<text text-anchor="middle" x="438" y="-33.8" font-family="Times,serif" font-size="14.00" fill="#000000">Data only attack</text>
</g>
<!-- data_flow_int&#45;&gt;data_only_attack -->
<g id="edge15" class="edge">
<title>data_flow_int-&gt;data_only_attack</title>
<path fill="none" stroke="#000000" d="M457.0753,-95.9891C454.5156,-88.2073 451.4415,-78.8621 448.5162,-69.9691"/>
<polygon fill="#000000" stroke="#000000" points="451.7615,-68.6338 445.3119,-60.2282 445.112,-70.8212 451.7615,-68.6338"/>
</g>
<!-- output_data_var&#45;&gt;data_rand_node -->
<g id="edge14" class="edge">
<title>output_data_var-&gt;data_rand_node</title>
<path fill="none" stroke="#000000" d="M470.7918,-244.5995C472.6847,-235.5132 475.0172,-224.3176 477.1344,-214.1549"/>
<polygon fill="#000000" stroke="#000000" points="480.6223,-214.5736 479.2354,-204.0699 473.7694,-213.1458 480.6223,-214.5736"/>
</g>
</g>
</svg>