<?xml version="1.0" encoding="UTF-8" standalone="no"?>
<!DOCTYPE svg PUBLIC "-//W3C//DTD SVG 1.1//EN" "http://www.w3.org/Graphics/SVG/1.1/DTD/svg11.dtd">
<!-- Generated by graphviz version 2.40.1 (20161225.0304)
 -->
<!-- Title: G Pages: 1 -->
<svg width="1253pt" height="525pt" viewBox="0.00 0.00 1253.00 524.80" xmlns="http://www.w3.org/2000/svg" xmlns:xlink="http://www.w3.org/1999/xlink">
<g id="graph0" class="graph" transform="scale(1 1) rotate(0) translate(4 520.8)">
<title>G</title>
<polygon fill="#ffffff" stroke="transparent" points="-4,4 -4,-520.8 1249,-520.8 1249,4 -4,4"/>
<g id="clust1" class="cluster">
<title>cluster_memory_safety</title>
<polygon fill="#b0c92b" fill-opacity="0.188235" stroke="#b0c92b" stroke-opacity="0.188235" points="8,-192.4 8,-508.8 448,-508.8 448,-192.4 8,-192.4"/>
<text text-anchor="middle" x="228" y="-492.2" font-family="Times,serif" font-size="14.00" fill="#000000">Memory Safety</text>
</g>
<g id="clust2" class="cluster">
<title>cluster_step_1</title>
<polygon fill="#b0c92b" fill-opacity="0.188235" stroke="#b0c92b" stroke-opacity="0.188235" points="26,-424 26,-476 440,-476 440,-424 26,-424"/>
</g>
<g id="clust3" class="cluster">
<title>cluster_step_2</title>
<polygon fill="#b0c92b" fill-opacity="0.188235" stroke="#b0c92b" stroke-opacity="0.188235" points="99,-200.4 99,-252.4 409,-252.4 409,-200.4 99,-200.4"/>
</g>
<g id="clust4" class="cluster">
<title>cluster_intermediary_step</title>
<polygon fill="#1954a6" fill-opacity="0.188235" stroke="#1954a6" stroke-opacity="0.188235" points="456,-100.8 456,-416 1237,-416 1237,-100.8 456,-100.8"/>
<text text-anchor="middle" x="846.5" y="-399.4" font-family="Times,serif" font-size="14.00" fill="#000000">Memory attack flow</text>
</g>
<g id="clust5" class="cluster">
<title>cluster_final</title>
<polygon fill="#d85497" fill-opacity="0.313725" stroke="#d85497" stroke-opacity="0.313725" points="246,-8 246,-92.8 1149,-92.8 1149,-8 246,-8"/>
<text text-anchor="middle" x="697.5" y="-76.2" font-family="Times,serif" font-size="14.00" fill="#000000">Final state</text>
</g>
<!-- dummy_top -->
<!-- OOB -->
<g id="node2" class="node">
<title>OOB</title>
<polygon fill="#ffffff" stroke="#000000" points="431.526,-468 242.474,-468 242.474,-432 431.526,-432 431.526,-468"/>
<text text-anchor="middle" x="337" y="-445.8" font-family="Times,serif" font-size="14.00" fill="#000000">Make pointer go out of bounds</text>
</g>
<!-- diamond -->
<g id="node4" class="node">
<title>diamond</title>
<polygon fill="#ffffff" stroke="#000000" points="252,-352.6 223,-345.6 252,-338.6 281,-345.6 252,-352.6"/>
</g>
<!-- OOB&#45;&gt;diamond -->
<g id="edge1" class="edge">
<title>OOB-&gt;diamond</title>
<path fill="none" stroke="#000000" d="M322.1941,-431.8149C305.5168,-411.3312 278.7622,-378.4703 263.5537,-359.7906"/>
<polygon fill="#000000" stroke="#000000" points="266.1379,-357.4211 257.1099,-351.8762 260.7095,-361.8408 266.1379,-357.4211"/>
</g>
<!-- writefr -->
<g id="node5" class="node">
<title>writefr</title>
<polygon fill="#ffffff" stroke="#000000" points="400.717,-244.4 247.283,-244.4 247.283,-208.4 400.717,-208.4 400.717,-244.4"/>
<text text-anchor="middle" x="324" y="-222.2" font-family="Times,serif" font-size="14.00" fill="#000000">Use pointer to write/free</text>
</g>
<!-- OOB&#45;&gt;writefr -->
<!-- data_integrity_node -->
<g id="node8" class="node">
<title>data_integrity_node</title>
<polygon fill="#ffffff" stroke="#000000" points="811.2897,-383.3003 626.7103,-383.3003 626.7103,-307.8997 811.2897,-307.8997 811.2897,-383.3003"/>
<text text-anchor="start" x="634.6052" y="-366.6" font-family="Times,serif" font-size="14.00" fill="#000000">Data integrity. Modify: </text>
<text text-anchor="start" x="634.6052" y="-349.8" font-family="Times,serif" font-size="14.00" fill="#000000"> ..data pointer </text>
<text text-anchor="start" x="634.6052" y="-333" font-family="Times,serif" font-size="14.00" fill="#000000"> ..code </text>
<text text-anchor="start" x="634.6052" y="-316.2" font-family="Times,serif" font-size="14.00" fill="#000000"> ..code pointer | ..data variable</text>
</g>
<!-- OOB&#45;&gt;data_integrity_node -->
<g id="edge7" class="edge">
<title>OOB-&gt;data_integrity_node</title>
<path fill="none" stroke="#000000" d="M431.605,-443.3791C499.2674,-437.7288 583.9766,-428.5235 617,-416 634.1448,-409.4981 651.178,-399.5238 666.274,-389.1093"/>
<polygon fill="#000000" stroke="#000000" points="668.3271,-391.9441 674.4498,-383.2975 664.2714,-386.2387 668.3271,-391.9441"/>
</g>
<!-- output_data_var -->
<g id="node12" class="node">
<title>output_data_var</title>
<polygon fill="#ffffff" stroke="#000000" points="608.2935,-363.6 463.7065,-363.6 463.7065,-327.6 608.2935,-327.6 608.2935,-363.6"/>
<text text-anchor="middle" x="536" y="-341.4" font-family="Times,serif" font-size="14.00" fill="#000000"> * Output data variable</text>
</g>
<!-- OOB&#45;&gt;output_data_var -->
<g id="edge11" class="edge">
<title>OOB-&gt;output_data_var</title>
<path fill="none" stroke="#000000" d="M371.6632,-431.8149C405.2321,-414.2039 456.2404,-387.4437 492.5154,-368.413"/>
<polygon fill="#000000" stroke="#000000" points="494.1715,-371.4967 501.4008,-363.7515 490.9194,-365.2979 494.1715,-371.4967"/>
</g>
<!-- dangling -->
<g id="node3" class="node">
<title>dangling</title>
<polygon fill="#ffffff" stroke="#000000" points="224.0609,-468 33.9391,-468 33.9391,-432 224.0609,-432 224.0609,-468"/>
<text text-anchor="middle" x="129" y="-445.8" font-family="Times,serif" font-size="14.00" fill="#000000">Make pointer become dangling</text>
</g>
<!-- dangling&#45;&gt;diamond -->
<g id="edge2" class="edge">
<title>dangling-&gt;diamond</title>
<path fill="none" stroke="#000000" d="M150.425,-431.8149C175.4695,-410.5576 216.2187,-375.9705 237.7015,-357.7363"/>
<polygon fill="#000000" stroke="#000000" points="240.0333,-360.3479 245.3924,-351.2084 235.5035,-355.0111 240.0333,-360.3479"/>
</g>
<!-- read -->
<g id="node6" class="node">
<title>read</title>
<polygon fill="#ffffff" stroke="#000000" points="229.4026,-244.4 106.5974,-244.4 106.5974,-208.4 229.4026,-208.4 229.4026,-244.4"/>
<text text-anchor="middle" x="168" y="-222.2" font-family="Times,serif" font-size="14.00" fill="#000000">Use pointer to read</text>
</g>
<!-- dangling&#45;&gt;read -->
<!-- diamond&#45;&gt;writefr -->
<g id="edge3" class="edge">
<title>diamond-&gt;writefr</title>
<path fill="none" stroke="#000000" d="M255.871,-339.1913C265.4234,-323.3769 290.5682,-281.7483 307.4894,-253.7342"/>
<polygon fill="#000000" stroke="#000000" points="310.7038,-255.182 312.8783,-244.8126 304.712,-251.5627 310.7038,-255.182"/>
</g>
<!-- diamond&#45;&gt;read -->
<g id="edge4" class="edge">
<title>diamond-&gt;read</title>
<path fill="none" stroke="#000000" d="M247.7189,-339.525C236.6297,-323.7888 206.4518,-280.965 186.5715,-252.7539"/>
<polygon fill="#000000" stroke="#000000" points="189.3863,-250.6722 180.7649,-244.514 183.6643,-254.7044 189.3863,-250.6722"/>
</g>
<!-- dummy_msc -->
<!-- instruction_rand_node -->
<g id="node9" class="node">
<title>instruction_rand_node</title>
<polygon fill="#ffffff" stroke="#000000" points="1228.5704,-244.4 793.4296,-244.4 793.4296,-208.4 1228.5704,-208.4 1228.5704,-244.4"/>
<text text-anchor="middle" x="1011" y="-222.2" font-family="Times,serif" font-size="14.00" fill="#000000">Instruction set randomization. (Modify code to) the attacker specified code</text>
</g>
<!-- data_integrity_node&#45;&gt;instruction_rand_node -->
<g id="edge8" class="edge">
<title>data_integrity_node-&gt;instruction_rand_node</title>
<path fill="none" stroke="#000000" d="M811.3906,-307.8844C859.497,-288.2464 916.6208,-264.9274 957.4078,-248.2773"/>
<polygon fill="#000000" stroke="#000000" points="958.9538,-251.4267 966.8893,-244.4068 956.3082,-244.9459 958.9538,-251.4267"/>
</g>
<!-- data_rand_node -->
<g id="node10" class="node">
<title>data_rand_node</title>
<polygon fill="#ffffff" stroke="#000000" points="775.5654,-272.1002 464.4346,-272.1002 464.4346,-180.6998 775.5654,-180.6998 775.5654,-272.1002"/>
<text text-anchor="start" x="472.4673" y="-255.4" font-family="Times,serif" font-size="14.00" fill="#000000">Data space randomization. (Modify code pointer to):</text>
<text text-anchor="start" x="472.4673" y="-238.6" font-family="Times,serif" font-size="14.00" fill="#000000"> ...the address of shellcode/gadget</text>
<text text-anchor="start" x="472.4673" y="-221.8" font-family="Times,serif" font-size="14.00" fill="#000000">...to the attacker specified value</text>
<text text-anchor="start" x="472.4673" y="-189" font-family="Times,serif" font-size="14.00" fill="#000000">* Interpret output data </text>
</g>
<!-- data_integrity_node&#45;&gt;data_rand_node -->
<g id="edge9" class="edge">
<title>data_integrity_node-&gt;data_rand_node</title>
<path fill="none" stroke="#000000" d="M687.6758,-307.8844C680.3292,-299.0388 672.3624,-289.4464 664.5608,-280.053"/>
<polygon fill="#000000" stroke="#000000" points="667.1453,-277.6867 658.0636,-272.2301 661.7603,-282.1591 667.1453,-277.6867"/>
</g>
<!-- code_corruption_attack -->
<g id="node14" class="node">
<title>code_corruption_attack</title>
<polygon fill="#ffffff" stroke="#ffffff" points="1118.9549,-30.5442 1118.9549,-45.4558 1055.7164,-56 966.2836,-56 903.0451,-45.4558 903.0451,-30.5442 966.2836,-20 1055.7164,-20 1118.9549,-30.5442"/>
<polygon fill="none" stroke="#ffffff" points="1122.9632,-27.157 1122.9632,-48.843 1056.049,-60 965.951,-60 899.0368,-48.843 899.0368,-27.157 965.951,-16 1056.049,-16 1122.9632,-27.157"/>
<text text-anchor="middle" x="1011" y="-33.8" font-family="Times,serif" font-size="14.00" fill="#000000">Code corruption attack</text>
</g>
<!-- instruction_rand_node&#45;&gt;code_corruption_attack -->
<g id="edge16" class="edge">
<title>instruction_rand_node-&gt;code_corruption_attack</title>
<path fill="none" stroke="#000000" d="M1011,-208.3354C1011,-176.5299 1011,-110.1379 1011,-70.2851"/>
<polygon fill="#000000" stroke="#000000" points="1014.5001,-70.0398 1011,-60.0399 1007.5001,-70.0399 1014.5001,-70.0398"/>
</g>
<!-- data_flow_int -->
<g id="node11" class="node">
<title>data_flow_int</title>
<polygon fill="#ffffff" stroke="#000000" points="668.0227,-144.8 545.9773,-144.8 545.9773,-108.8 668.0227,-108.8 668.0227,-144.8"/>
<text text-anchor="middle" x="607" y="-122.6" font-family="Times,serif" font-size="14.00" fill="#000000">Data flow integrity</text>
</g>
<!-- data_rand_node&#45;&gt;data_flow_int -->
<g id="edge10" class="edge">
<title>data_rand_node-&gt;data_flow_int</title>
<path fill="none" stroke="#000000" d="M614.0327,-180.6811C612.8817,-171.8628 611.7083,-162.8727 610.6581,-154.8268"/>
<polygon fill="#000000" stroke="#000000" points="614.1257,-154.3502 609.3608,-144.8873 607.1846,-155.2562 614.1257,-154.3502"/>
</g>
<!-- information_leak -->
<g id="node17" class="node">
<title>information_leak</title>
<polygon fill="#ffffff" stroke="#ffffff" points="876.7943,-30.5442 876.7943,-45.4558 828.8803,-56 761.1197,-56 713.2057,-45.4558 713.2057,-30.5442 761.1197,-20 828.8803,-20 876.7943,-30.5442"/>
<polygon fill="none" stroke="#ffffff" points="880.7894,-27.3279 880.7894,-48.6721 829.3142,-60 760.6858,-60 709.2106,-48.6721 709.2106,-27.3279 760.6858,-16 829.3142,-16 880.7894,-27.3279"/>
<text text-anchor="middle" x="795" y="-33.8" font-family="Times,serif" font-size="14.00" fill="#000000">Information leak</text>
</g>
<!-- data_rand_node&#45;&gt;information_leak -->
<g id="edge15" class="edge">
<title>data_rand_node-&gt;information_leak</title>
<path fill="none" stroke="#000000" d="M662.3626,-180.7936C694.9557,-145.7048 739.0551,-98.2287 767.2708,-67.8525"/>
<polygon fill="#000000" stroke="#000000" points="770.1936,-69.8486 774.4349,-60.1398 765.0648,-65.0846 770.1936,-69.8486"/>
</g>
<!-- control_flow_hijack_attack -->
<g id="node15" class="node">
<title>control_flow_hijack_attack</title>
<polygon fill="#ffffff" stroke="#ffffff" points="500.2606,-30.5442 500.2606,-45.4558 429.2278,-56 328.7722,-56 257.7394,-45.4558 257.7394,-30.5442 328.7722,-20 429.2278,-20 500.2606,-30.5442"/>
<polygon fill="none" stroke="#ffffff" points="504.2567,-27.0936 504.2567,-48.9064 429.5225,-60 328.4775,-60 253.7433,-48.9064 253.7433,-27.0936 328.4775,-16 429.5225,-16 504.2567,-27.0936"/>
<text text-anchor="middle" x="379" y="-33.8" font-family="Times,serif" font-size="14.00" fill="#000000">Control flow hijack attack</text>
</g>
<!-- data_flow_int&#45;&gt;control_flow_hijack_attack -->
<g id="edge14" class="edge">
<title>data_flow_int-&gt;control_flow_hijack_attack</title>
<path fill="none" stroke="#000000" d="M556.6835,-108.7702C542.8158,-103.7018 527.7942,-98.1193 514,-92.8 489.9382,-83.5212 463.6299,-72.9414 440.6809,-63.5686"/>
<polygon fill="#000000" stroke="#000000" points="441.9818,-60.3193 431.4012,-59.7698 439.3298,-66.7975 441.9818,-60.3193"/>
</g>
<!-- data_only_attack -->
<g id="node16" class="node">
<title>data_only_attack</title>
<polygon fill="#ffffff" stroke="#ffffff" points="687.3863,-30.5442 687.3863,-45.4558 640.2971,-56 573.7029,-56 526.6137,-45.4558 526.6137,-30.5442 573.7029,-20 640.2971,-20 687.3863,-30.5442"/>
<polygon fill="none" stroke="#ffffff" points="691.3835,-27.3403 691.3835,-48.6597 640.7388,-60 573.2612,-60 522.6165,-48.6597 522.6165,-27.3403 573.2612,-16 640.7388,-16 691.3835,-27.3403"/>
<text text-anchor="middle" x="607" y="-33.8" font-family="Times,serif" font-size="14.00" fill="#000000">Data only attack</text>
</g>
<!-- data_flow_int&#45;&gt;data_only_attack -->
<g id="edge13" class="edge">
<title>data_flow_int-&gt;data_only_attack</title>
<path fill="none" stroke="#000000" d="M607,-108.4006C607,-97.4466 607,-83.2327 607,-70.4474"/>
<polygon fill="#000000" stroke="#000000" points="610.5001,-70.1467 607,-60.1468 603.5001,-70.1468 610.5001,-70.1467"/>
</g>
<!-- output_data_var&#45;&gt;data_rand_node -->
<g id="edge12" class="edge">
<title>output_data_var-&gt;data_rand_node</title>
<path fill="none" stroke="#000000" d="M548.7578,-327.4961C557.6717,-314.8469 570.0742,-297.2471 582.036,-280.2727"/>
<polygon fill="#000000" stroke="#000000" points="584.9561,-282.2049 587.8555,-272.0145 579.2341,-278.1726 584.9561,-282.2049"/>
</g>
<!-- dummy_bottom -->
</g>
</svg>