<?xml version="1.0" encoding="UTF-8" standalone="no"?>
<!DOCTYPE svg PUBLIC "-//W3C//DTD SVG 1.1//EN" "http://www.w3.org/Graphics/SVG/1.1/DTD/svg11.dtd">
<!-- Generated by graphviz version 2.40.1 (20161225.0304)
 -->
<!-- Title: finite_state_machine Pages: 1 -->
<svg width="432pt" height="254pt" viewBox="0.00 0.00 432.00 253.97" xmlns="http://www.w3.org/2000/svg" xmlns:xlink="http://www.w3.org/1999/xlink">
<g id="graph0" class="graph" transform="scale(.8494 .8494) rotate(0) translate(4 295)">
<title>finite_state_machine</title>
<polygon fill="#ffffff" stroke="transparent" points="-4,4 -4,-295 504.6046,-295 504.6046,4 -4,4"/>
<g id="clust1" class="cluster">
<title>cluster</title>
<polygon fill="none" stroke="#000000" points="247.4012,-8 247.4012,-193 492.6046,-193 492.6046,-8 247.4012,-8"/>
<text text-anchor="middle" x="370.0029" y="-176.4" font-family="Helvetica,Arial,sans-serif" font-size="14.00" fill="#000000">State extention</text>
</g>
<!-- 0 -->
<g id="node1" class="node">
<title>0</title>
<ellipse fill="none" stroke="#000000" cx="22" cy="-186" rx="18" ry="18"/>
<ellipse fill="none" stroke="#000000" cx="22" cy="-186" rx="22" ry="22"/>
<text text-anchor="middle" x="22" y="-181.8" font-family="Times,serif" font-size="14.00" fill="#000000">0</text>
</g>
<!-- 2 -->
<g id="node2" class="node">
<title>2</title>
<ellipse fill="none" stroke="#000000" cx="139.9776" cy="-219" rx="18" ry="18"/>
<text text-anchor="middle" x="139.9776" y="-214.8" font-family="Times,serif" font-size="14.00" fill="#000000">2</text>
</g>
<!-- 0&#45;&gt;2 -->
<g id="edge1" class="edge">
<title>0-&gt;2</title>
<path fill="none" stroke="#000000" d="M43.3649,-191.9761C62.8809,-197.435 91.8266,-205.5315 112.9453,-211.4387"/>
<polygon fill="#000000" stroke="#000000" points="112.035,-214.8184 122.6082,-214.1415 113.9207,-208.0771 112.035,-214.8184"/>
<text text-anchor="middle" x="82.9888" y="-212.2" font-family="Times,serif" font-size="14.00" fill="#000000">Correct</text>
</g>
<!-- 1 -->
<g id="node3" class="node">
<title>1</title>
<ellipse fill="none" stroke="#000000" cx="139.9776" cy="-159" rx="18" ry="18"/>
<text text-anchor="middle" x="139.9776" y="-154.8" font-family="Times,serif" font-size="14.00" fill="#000000">1</text>
</g>
<!-- 0&#45;&gt;1 -->
<g id="edge2" class="edge">
<title>0-&gt;1</title>
<path fill="none" stroke="#000000" d="M42.4517,-176.8598C48.6329,-174.3884 55.5049,-171.9238 62,-170.2 78.1686,-165.9088 96.6875,-163.1614 111.6199,-161.4622"/>
<polygon fill="#000000" stroke="#000000" points="112.1913,-164.9217 121.7743,-160.4031 111.4651,-157.9595 112.1913,-164.9217"/>
<text text-anchor="middle" x="82.9888" y="-174.2" font-family="Times,serif" font-size="14.00" fill="#000000">Correct</text>
</g>
<!-- 7 -->
<g id="node5" class="node">
<title>7</title>
<ellipse fill="none" stroke="#000000" cx="273.4012" cy="-273" rx="18" ry="18"/>
<text text-anchor="middle" x="273.4012" y="-268.8" font-family="Times,serif" font-size="14.00" fill="#000000">7</text>
</g>
<!-- 2&#45;&gt;7 -->
<g id="edge4" class="edge">
<title>2-&gt;7</title>
<path fill="none" stroke="#000000" d="M155.3833,-228.9064C161.6257,-232.6745 168.9975,-236.8213 175.9776,-240 198.9512,-250.4622 226.2587,-259.4322 246.109,-265.368"/>
<polygon fill="#000000" stroke="#000000" points="245.1668,-268.739 255.7473,-268.1872 247.1321,-262.0205 245.1668,-268.739"/>
<text text-anchor="middle" x="206.6894" y="-266.2" font-family="Times,serif" font-size="14.00" fill="#000000">Correct</text>
</g>
<!-- 8 -->
<g id="node6" class="node">
<title>8</title>
<ellipse fill="none" stroke="#000000" cx="273.4012" cy="-219" rx="18" ry="18"/>
<text text-anchor="middle" x="273.4012" y="-214.8" font-family="Times,serif" font-size="14.00" fill="#000000">8</text>
</g>
<!-- 2&#45;&gt;8 -->
<g id="edge5" class="edge">
<title>2-&gt;8</title>
<path fill="none" stroke="#000000" d="M158.2498,-219C180.7062,-219 219.0507,-219 245.2741,-219"/>
<polygon fill="#000000" stroke="#000000" points="245.3497,-222.5001 255.3497,-219 245.3496,-215.5001 245.3497,-222.5001"/>
<text text-anchor="middle" x="206.6894" y="-223.2" font-family="Times,serif" font-size="14.00" fill="#000000">Correct</text>
</g>
<!-- 3 -->
<g id="node4" class="node">
<title>3</title>
<ellipse fill="none" stroke="#000000" cx="273.4012" cy="-142" rx="18" ry="18"/>
<text text-anchor="middle" x="273.4012" y="-137.8" font-family="Times,serif" font-size="14.00" fill="#000000">3</text>
</g>
<!-- 1&#45;&gt;3 -->
<g id="edge3" class="edge">
<title>1-&gt;3</title>
<path fill="none" stroke="#000000" d="M157.9717,-156.7073C180.3529,-153.8556 218.8196,-148.9544 245.1485,-145.5998"/>
<polygon fill="#000000" stroke="#000000" points="245.7887,-149.0466 255.2661,-144.3107 244.9039,-142.1027 245.7887,-149.0466"/>
<text text-anchor="middle" x="206.6894" y="-157.2" font-family="Times,serif" font-size="14.00" fill="#000000">Exception!</text>
</g>
<!-- 6 -->
<g id="node7" class="node">
<title>6</title>
<ellipse fill="none" stroke="#000000" cx="466.6046" cy="-34" rx="18" ry="18"/>
<text text-anchor="middle" x="466.6046" y="-29.8" font-family="Times,serif" font-size="14.00" fill="#000000">6</text>
</g>
<!-- 3&#45;&gt;6 -->
<g id="edge6" class="edge">
<title>3-&gt;6</title>
<path fill="none" stroke="#000000" d="M282.9381,-126.7141C292.6963,-112.2631 309.1303,-90.9483 328.4012,-78.2 362.6438,-55.5475 409.3032,-43.8231 438.6892,-38.2936"/>
<polygon fill="#000000" stroke="#000000" points="439.4409,-41.7151 448.6791,-36.528 438.2225,-34.8219 439.4409,-41.7151"/>
<text text-anchor="middle" x="370.0029" y="-82.2" font-family="Times,serif" font-size="14.00" fill="#000000">Post-exception</text>
</g>
<!-- 5 -->
<g id="node8" class="node">
<title>5</title>
<ellipse fill="none" stroke="#000000" cx="466.6046" cy="-88" rx="18" ry="18"/>
<text text-anchor="middle" x="466.6046" y="-83.8" font-family="Times,serif" font-size="14.00" fill="#000000">5</text>
</g>
<!-- 3&#45;&gt;5 -->
<g id="edge7" class="edge">
<title>3-&gt;5</title>
<path fill="none" stroke="#000000" d="M290.0612,-135.0731C300.8708,-130.7353 315.3272,-125.225 328.4012,-121.2 366.0433,-109.6113 410.4701,-99.5676 438.5891,-93.6471"/>
<polygon fill="#000000" stroke="#000000" points="439.4398,-97.0452 448.5194,-91.5853 438.0167,-90.1914 439.4398,-97.0452"/>
<text text-anchor="middle" x="370.0029" y="-125.2" font-family="Times,serif" font-size="14.00" fill="#000000">Post-exception</text>
</g>
<!-- 4 -->
<g id="node9" class="node">
<title>4</title>
<ellipse fill="none" stroke="#000000" cx="466.6046" cy="-142" rx="18" ry="18"/>
<text text-anchor="middle" x="466.6046" y="-137.8" font-family="Times,serif" font-size="14.00" fill="#000000">4</text>
</g>
<!-- 3&#45;&gt;4 -->
<g id="edge8" class="edge">
<title>3-&gt;4</title>
<path fill="none" stroke="#000000" d="M291.5773,-142C325.3077,-142 397.8144,-142 438.1174,-142"/>
<polygon fill="#000000" stroke="#000000" points="438.3361,-145.5001 448.336,-142 438.336,-138.5001 438.3361,-145.5001"/>
<text text-anchor="middle" x="370.0029" y="-146.2" font-family="Times,serif" font-size="14.00" fill="#000000">Post-exception</text>
</g>
</g>
</svg>