<?xml version="1.0" encoding="UTF-8" standalone="no"?>
<!DOCTYPE svg PUBLIC "-//W3C//DTD SVG 1.1//EN" "http://www.w3.org/Graphics/SVG/1.1/DTD/svg11.dtd">
<!-- Generated by graphviz version 2.40.1 (20161225.0304)
 -->
<!-- Title: G Pages: 1 -->
<svg width="523pt" height="123pt" viewBox="0.00 0.00 523.00 123.00" xmlns="http://www.w3.org/2000/svg" xmlns:xlink="http://www.w3.org/1999/xlink">
<g id="graph0" class="graph" transform="scale(1 1) rotate(0) translate(4 119)">
<title>G</title>
<polygon fill="#ffffff" stroke="transparent" points="-4,4 -4,-119 519,-119 519,4 -4,4"/>
<!-- table_nodes -->
<g id="node1" class="node">
<title>table_nodes</title>
<polygon fill="#d3d3d3" stroke="transparent" points="8.5,-85.5 8.5,-110.5 507.5,-110.5 507.5,-85.5 8.5,-85.5"/>
<polygon fill="none" stroke="#000000" points="8.5,-85.5 8.5,-110.5 507.5,-110.5 507.5,-85.5 8.5,-85.5"/>
<text text-anchor="start" x="204.22" y="-93.1" font-family="Arial" font-size="16.00" fill="#000000">FFI String logic</text>
<polygon fill="#ffffff" stroke="transparent" points="8.5,-63.5 8.5,-85.5 230.5,-85.5 230.5,-63.5 8.5,-63.5"/>
<polygon fill="none" stroke="#000000" points="8.5,-63.5 8.5,-85.5 230.5,-85.5 230.5,-63.5 8.5,-63.5"/>
<text text-anchor="start" x="87.601" y="-69.9" font-family="Arial" font-size="14.00" fill="#000000">pub String</text>
<polygon fill="#ffffff" stroke="transparent" points="230.5,-63.5 230.5,-85.5 507.5,-85.5 507.5,-63.5 230.5,-63.5"/>
<polygon fill="none" stroke="#000000" points="230.5,-63.5 230.5,-85.5 507.5,-85.5 507.5,-63.5 230.5,-63.5"/>
<text text-anchor="start" x="337.5" y="-69.9" font-family="Arial" font-size="14.00" fill="#000000">priv String</text>
<polygon fill="none" stroke="#000000" points="8.5,-3.5 8.5,-63.5 230.5,-63.5 230.5,-3.5 8.5,-3.5"/>
<text text-anchor="start" x="13.5" y="-47.7" font-family="Arial" font-size="12.00" fill="#000000">1. unique</text>
<text text-anchor="start" x="13.5" y="-29.7" font-family="Arial" font-size="12.00" fill="#000000">2. can be borrowed</text>
<text text-anchor="start" x="13.1512" y="-11.7" font-family="Arial" font-size="12.00" fill="#000000">3. implements Rust memory guarantees</text>
<polygon fill="none" stroke="#000000" points="230.5,-3.5 230.5,-63.5 507.5,-63.5 507.5,-3.5 230.5,-3.5"/>
<text text-anchor="start" x="235.5" y="-47.7" font-family="Arial" font-size="12.00" fill="#000000">1. fat pointer (data, bounds)</text>
<text text-anchor="start" x="235.5" y="-29.7" font-family="Arial" font-size="12.00" fill="#000000">2. hidden from the user</text>
<text text-anchor="start" x="235.3158" y="-11.7" font-family="Arial" font-size="12.00" fill="#000000">3. memory management relies on the programmer</text>
</g>
</g>
</svg>